<svg xmlns="http://www.w3.org/2000/svg" viewBox="0 0 99.2 113.4"><path d="M73 0C61.2 0 55.3 7.4 50.9 12.7c-.3.4-.6.7-.8 1-.2.2-.2.3-.5.2-.2 0-.3 0-.5-.2-.3-.3-.6-.7-.8-1C43.9 7.4 38 0 26.3 0h-.2C11.7.1.9 11 .3 26.1c-.8 19.3 12.3 33.5 18.6 40.4 4.4 4.8 12.7 11.3 20.1 15v31.9h21.2V81.5c7.4-3.6 15.7-10.2 20.1-15 6.3-6.9 19.4-21.1 18.6-40.4C98.3 11 87.5.1 73 0zM52.4 105.6h-5.6V84.2c1 .1 1.9.2 2.8.2.9 0 1.9-.1 2.8-.2v21.4zm27.9-56.1v3.4c-2.3 3.1-4.7 5.6-6.6 7.6-3.4 3.7-8.7 7.8-13.5 10.8-3 1.8-5.8 3.2-7.8 3.8-.4.1-.8.2-1.1.2-.6.1-1.2.1-1.7.1s-1.1 0-1.7-.1c-.3 0-.7-.1-1.1-.2-2-.6-4.8-2-7.8-3.8-4.8-3-10.1-7.1-13.5-10.8-1.9-2-4.2-4.6-6.6-7.6v-3.4c-.1-6-.2-12.7 1.5-14.4.1-.1.5-.5 1.7-.5 1.1 0 1.4.3 1.5.4.8.9 1.2 2.9 1.5 5.5.3 2.6.1 5.8 2.3 9.7.8 1.4 1.1 1.6 1.6 2.1.8.9 1.8 1.5 2.9 2 .4.2.8.3 1.2.4 1 .3 2 .4 3.1.4 1 0 2-.1 2.9-.4h.1c1.5-.4 2.8-1.2 3.8-2.3 2.4-2.4 3.4-6 3.9-10.6v-.1c0-.9.1-1.8.2-2.6V39c.2-2.1.6-3.7 1.3-4.4.1-.1.4-.4 1.3-.4s1.2.2 1.3.4c.7.7 1.1 2.3 1.3 4.4v.1c.1.8.1 1.7.2 2.6v.1c.4 4.5 1.5 8.1 3.9 10.6 1.1 1.1 2.4 1.9 3.8 2.3h.1c.9.3 1.9.4 2.9.4 1.1 0 2.1-.1 3.1-.4.4-.1.8-.2 1.2-.4 1.1-.5 2.1-1.1 2.9-2 .4-.4.7-.6 1.6-2.1 2.2-3.9 2-7.1 2.3-9.7.3-2.6.6-4.6 1.5-5.5.1-.1.4-.4 1.5-.4 1.2 0 1.6.4 1.7.5 1.5 1.7 1.4 8.4 1.3 14.4zM88 39.2c-.4-4-1.3-7.3-3.6-9.6-1.8-1.9-4.3-2.8-7.3-2.8-1.2 0-2.2.2-3.2.4-1.5.4-2.8 1.2-3.8 2.3-2.6 2.6-3.6 6.4-3.9 11.3v.8c-.3 2.4-.7 4.4-1.5 5.2-.1.1-.4.5-1.6.5-1 0-1.2-.3-1.4-.4-.8-.8-1.2-2.7-1.4-5.1v-1c0-.3-.1-.6-.1-1v-.2c-.4-4.5-1.3-8.1-3.7-10.5-1.1-1.2-2.5-2-4.1-2.4-.8-.2-1.8-.3-2.7-.3-1 0-1.9.1-2.7.3-1.6.4-3 1.2-4.1 2.4-2.4 2.4-3.4 6-3.7 10.5v.2c0 .4 0 .7-.1 1v1c-.2 2.4-.6 4.2-1.4 5.1-.1.1-.4.4-1.4.4-1.2 0-1.5-.3-1.6-.5-.8-.8-1.2-2.7-1.4-5.2v-.8c-.4-4.8-1.4-8.7-3.9-11.3-1.1-1.1-2.4-1.9-3.8-2.3-1-.3-2.1-.4-3.2-.4-3 0-5.4.9-7.3 2.8-2.3 2.3-3.2 5.6-3.6 9.6-1.4-3.9-2.2-8.2-2-12.8.4-10.2 7.4-17.5 17-17.5h.1c7.4 0 11.2 4.6 15.1 9.4.8 1 1.5 1.9 2.3 2.7 1.3 1.4 3.1 2.3 5 2.4h2c1.9-.1 3.7-1 5-2.4.7-.9 1.5-1.8 2.3-2.7 3.9-4.8 7.6-9.4 15.1-9.4h.1c9.6.1 16.6 7.3 17 17.5-.3 4.6-1.1 8.9-2.5 12.8z" fill="#ffa5ba"/></svg>