<svg xmlns="http://www.w3.org/2000/svg" viewBox="0 0 113.4 113.4"><path d="M91.3 48.1s-.1-.1-.1-.2c-1.1-1.1-2.5-1.8-4.1-1.8H26.3c-1.5 0-3 .6-4.1 1.8 0 0-.1.1-.1.2-1 1.2-1.5 2.9-1.2 4.5l8.9 56.2c.4 2.7 2.7 4.7 5.5 4.7h42.8c2.7 0 5-2 5.5-4.7l8.9-56.2c.3-1.6-.2-3.3-1.2-4.5zm-16.1 56.4h-37l-4.5-28.4c6.1 4.9 14.2 8 23.1 8.1 8.8-.1 16.9-3.2 23.1-8.1l-4.7 28.4zM56.7 75.3c-13.3-.2-24.3-9-25.7-20.3h51.4C81 66.3 70 75.1 56.7 75.3zM84.8 13v-.2c.6-1.3 1-2.6 1.3-4 .5-1.8.8-3.8.8-5.8 0-1 .1-3-.8-3H27.3c-.8 0-.8 2-.8 3 0 2 .2 4 .7 5.9.4 1.4.8 2.7 1.3 4v.2c-2.6 3.1-4.3 6.1-4.3 9.3 0 2.6 1 5 3.2 7.2 2 2 4.3 3 6.9 3h.1c3.3 0 6.5-1.8 9.8-4.6 1 .4 1.2.5 2.1.9.2 4.8 1.1 8.6 3.7 11.2 1.7 1.8 4 2.7 6.7 2.8 2.7-.1 5-1 6.7-2.8 2.6-2.6 3.4-6.5 3.7-11.2 1-.4 1.2-.5 2.1-.9 3.3 2.8 6.5 4.5 9.8 4.6h.1c2.5 0 4.9-1 6.9-3 2.1-2.1 3.2-4.5 3.2-7.2-.1-3.3-1.8-6.2-4.4-9.4zm-4.1 11.2c-.8.8-1.4.6-1.6.6-.7 0-1.7-.4-2.7-1.1-2-1.3-4.3-3.7-6.7-5.9 0 0-.1-.1-.2-.1-.4.1-1.6.9-2.4 1.3-1.6.8-3.5 1.4-5.4 1.8-.8.2-2.4.2-2.4.6 0 3.3.1 6.2-.2 8.7-.2 2.2-.6 3.9-1.3 4.6-.1.1-.4.4-1.2.4-.8-.1-1-.3-1.2-.4-.7-.7-1.1-2.4-1.3-4.6-.1-2.5-.1-5.4-.1-8.7 0-.4-1.6-.4-2.4-.6-1.9-.4-3.7-1-5.4-1.8-.8-.4-2-1.2-2.4-1.3-.1 0-.1 0-.2.1-2.4 2.2-4.7 4.6-6.7 5.9-1.1.7-2 1.1-2.7 1.1-.2 0-.9.2-1.6-.6-.9-.9-.6-1.6-.6-1.8 0-.7.4-1.5 1-2.5 1.3-1.9 3.5-4.3 5.9-6.6.1-.1.1-.2 0-.2-1-1.2-1.8-2.6-2.3-4 0-.1 0-.3.2-.3h39.7c.1 0 .2.1.2.3-.6 1.4-1.4 2.7-2.3 4v.2c2.4 2.3 4.6 4.7 5.9 6.6.6 1 1 1.8 1 2.5 0 .3.3.9-.6 1.8z" fill="#ffa5ba"/></svg>