<svg xmlns="http://www.w3.org/2000/svg" viewBox="0 0 106.6 113.4"><path d="M106.5 87.7c-.6-4.1-2.7-7.3-6-9.5-4.3-2.8-8.7-2.8-13.3-.2 0-.7.1-1.4.3-2.1.3-1.1.7-2.1 1.3-3.1.6-.9 1.2-1.7 2-2.4s1.7-1.3 2.7-1.8l.1-.1c.2-.1.4-.3.6-.4 1.8-1.5 2.1-4.1.6-5.9-1.5-1.8-4.1-2.1-5.9-.6-1.4 1.1-2.7 2.3-3.8 3.7-1.1 1.4-2 3-2.6 4.7-.6 1.7-.9 3.4-1 5.1-.1 1.1 0 2.1.1 3.2-.9-.6-1.8-1-2.7-1.4l5.4-31.7c.3-1.6-.2-3.2-1.2-4.5-1.1-1.3-2.6-2-4.3-2h-.5c1.2-3.2 1.8-6.9 1.3-10.4-.6-4.1-2.7-7.3-6-9.5-4.3-2.8-8.7-2.8-13.3-.2 0-.7.1-1.4.3-2.1.3-1.1.7-2.1 1.3-3.1.6-.9 1.2-1.7 2-2.4s1.7-1.3 2.7-1.8l.1-.1c.2-.1.4-.3.6-.4 1.8-1.5 2.1-4.1.6-5.9C66.4 1 63.8.7 62 2.2c-1.4 1.1-2.7 2.3-3.8 3.7s-2 3-2.6 4.7c-.6 1.7-.9 3.4-1 5.1-.1 1.1 0 2.1.1 3.2-3.7-2.4-7.4-2.9-10.9-1.7-.6-.8-1.2-1.6-1.9-2.3-3-3.1-6.7-4.7-10.8-4.5-5.3.2-9.2 2.8-11.5 7.8-.4-.6-.8-1.3-1-2-.5-1.1-.7-2.3-.8-3.4-.1-1.1 0-2.2.3-3.3.2-1.1.5-2.2 1.2-3.1.3-.4.4-.4.5-.7 1-2.2-.6-4.8-3-5.5-2.3-.7-4.8.7-5.5 3-.5 1.8-.9 3.6-1 5.5s.1 3.8.6 5.6c.5 1.8 1.2 3.5 2.2 5 .6 1 1.3 1.8 2.1 2.7-6 .3-10 3-12.1 8.2-1.2 3.1-1.4 6.3-.4 9.4-.6.3-1.1.7-1.5 1.2C.1 42-.3 43.6 0 45.2l10.7 63.6c.5 2.7 2.8 4.6 5.5 4.6H68c2.3 0 4.3-1.4 5.2-3.4 1.8.8 3.6 1 5.2 1 1.8 0 3.4-.3 4.6-.6.5-.1.8-.2 1-.2h.2c.2 0 .6.1 1 .2 1.1.2 2.7.6 4.6.6 3.4 0 7.6-1.1 11.6-6 3.1-3.8 6-10.9 5.1-17.3zM47.2 24.4c.2 0 .4-.1.6-.1 1.8 0 3.6 1.1 6.1 3.5.9.9 1.9 1.9 3.5 1.9s2.6-.9 3.5-1.9c2.5-2.4 4.3-3.5 6.1-3.5.9 0 1.8.3 2.6.9 1.5 1 2.4 2.4 2.7 4.3.5 3-.6 6.6-2 9.3H46.9c.6-1.6 1.1-3.5 1.3-5.8.2-2.4-.1-5.5-1-8.6zm-36.4 14c-.9-1.8-1-3.6-.3-5.3.4-1 1-1.8 1.7-2.3 1.5-1.1 3.8-1.2 7.3-.6 1.4.2 2.7.5 4.1-.5 1.4-1 1.6-2.4 1.9-3.7.7-3.5 1.6-5.6 3.1-6.7.8-.5 1.7-.8 2.8-.8 1.9-.1 3.5.6 4.9 2.1l1.2 1.5c2 3.1 2.9 7.5 2.7 10.5-.3 3.6-1.5 5.3-3.2 6.3H11.1c-.1-.2-.2-.3-.3-.5zm.4 12.1v-.3c0-.9.1-1.8.3-2.7H73v.1c.2 1 .3 2 .3 3 0 12.2-14 22.1-31.1 22.1-17-.1-31-10-31-22.2zm56.5 27.7c-3.3 2.2-5.4 5.4-6 9.5-.9 5.7 1.3 11.9 4 15.9l-.2 1.3H18.8l-5.6-33.6c7.2 6.1 17.6 9.9 29.1 9.9 11.4 0 21.8-3.8 29-9.8l-.9 5.4c-1 .4-1.9.8-2.7 1.4zm27.8 22.2c-3.3 4-6 3.4-8.8 2.8-.9-.2-1.8-.4-2.7-.4-.9 0-1.8.2-2.7.4-2.2.5-4.4.9-6.7-.8-.6-.5-1.3-1.1-2-2-2.1-2.6-4.1-7.6-3.5-11.5.3-1.9 1.2-3.4 2.7-4.3.9-.6 1.8-.9 2.6-.9 1 0 2 .4 3.2 1.1.9.6 1.8 1.4 2.9 2.4.9.9 1.9 1.9 3.5 1.9s2.6-.9 3.5-1.9c2.5-2.4 4.3-3.5 6.1-3.5.9 0 1.8.3 2.6.9 1.5 1 2.4 2.4 2.7 4.3.7 3.9-1.2 8.8-3.4 11.5z" fill="#ffa5ba"/></svg>