<svg aria-hidden="true" version="1.1" xmlns="http://www.w3.org/2000/svg" xmlns:xlink="http://www.w3.org/1999/xlink">
<defs>
<symbol id="logo" viewBox="0 0 32 32">
<path fill="#d41442" style="fill: var(--color2, #d41442)" d="M32 16c0 6.857-4.317 12.727-10.413 14.984-0.593 0.226-1.242 0.423-1.862 0.564-1.185 0.282-2.427 0.423-3.725 0.423-1.016 0-2.032-0.085-2.991-0.282-0.649-0.113-1.27-0.282-1.862-0.48-6.462-2.032-11.146-8.071-11.146-15.21 0-8.832 7.168-16 16-16s16 7.168 16 16z"></path>
<path fill="#fff" style="fill: var(--color1, #fff)" d="M25.679 15.549c0.056-0.818-0.056-2.088-0.198-2.822-0.169-1.072-0.508-2.145-1.129-3.132-0.339-0.564-0.762-1.101-1.242-1.58-0.339-0.339-0.705-0.649-1.129-0.931-0.564-0.395-1.185-0.762-1.862-1.016-0.564-0.254-1.185-0.423-1.862-0.536-0.564-0.113-1.157-0.169-1.75-0.169h-0.339c-2.737 0-5.023 1.101-6.603 2.653-0.48 0.48-0.903 1.016-1.242 1.58-0.621 0.988-0.959 2.060-1.129 3.132-0.113 0.734-0.226 2.004-0.198 2.822-1.101 0.395-1.862 1.439-1.862 2.681 0 1.326 0.903 2.455 2.116 2.765v3.527c0 2.258 1.665 4.148 3.838 4.43v2.286c0.621 0.198 1.242 0.367 1.862 0.48v-2.709h6.716v2.568c0.649-0.141 1.27-0.339 1.862-0.564v-2.032c2.173-0.31 3.838-2.173 3.838-4.43v-3.584c1.213-0.31 2.116-1.439 2.116-2.765 0.085-1.213-0.705-2.258-1.806-2.653zM16.198 7.224h0.339c0.593 0 1.129 0.056 1.665 0.169 0.705 0.169 1.355 0.395 1.947 0.734 0.705 0.395 1.355 0.875 1.862 1.439-0.508 0.508-1.157 0.959-1.862 1.298-0.593 0.282-1.242 0.508-1.947 0.649-0.536 0.113-1.101 0.169-1.665 0.169h-0.339c-2.201 0-4.176-0.818-5.474-2.088 1.27-1.383 3.189-2.37 5.474-2.37zM9.086 12.952c0.113-0.621 0.254-1.242 0.564-1.834 1.637 1.496 3.951 2.427 6.547 2.427h0.339c0.564 0 1.129-0.056 1.665-0.141 0.677-0.113 1.326-0.282 1.947-0.508 0.677-0.254 1.298-0.564 1.862-0.959 0.395-0.254 0.734-0.536 1.072-0.847 0.31 0.593 0.451 1.213 0.564 1.834 0.113 0.593 0.198 1.834 0.169 2.427h-14.899c-0.028-0.564 0.056-1.806 0.169-2.399zM23.563 24.494c0 1.439-1.185 2.624-2.624 2.624h-9.171c-1.439 0-2.624-1.185-2.624-2.624v-3.414h7.139v1.467c0 1.58 1.27 2.85 2.85 2.85 1.608 0 2.878-1.27 2.878-2.85v-1.467h1.552v3.414zM18.173 22.547v-1.467h1.947v1.467c0 0.536-0.423 0.988-0.988 0.988-0.508 0-0.959-0.451-0.959-0.988zM24.72 19.189h-16.705c-0.536 0-0.988-0.451-0.988-0.988 0-0.339 0.169-0.649 0.452-0.818 0.169-0.113 0.339-0.169 0.536-0.169h16.705c0.198 0 0.395 0.056 0.536 0.169 0.282 0.169 0.451 0.48 0.451 0.818-0.028 0.564-0.451 0.988-0.988 0.988z"></path>
</symbol>
<symbol viewBox="0 0 46 32">
<path fill="none" stroke="#d41443" style="stroke: var(--color3, #d41443)" stroke-linejoin="miter" stroke-linecap="butt" stroke-miterlimit="4" stroke-width="2.2857" d="M0 2.286h45.714M0 16h45.714M0 29.714h45.714"></path>
</symbol>
<symbol id="mob-menu" viewBox="0 0 20 14" fill="none" xmlns="http://www.w3.org/2000/svg">
<path d="M0 1H20" stroke="#D41443"/>
<path d="M0 7H20" stroke="#D41443"/>
<path d="M0 13H20" stroke="#D41443"/>
</symbol>
<symbol id="close-menu" viewBox="0 0 16 16">
<path d="M1.25928 1L14.7408 15" stroke="white"/>
<path d="M1 14.7407L15 1.25924" stroke="white"/>
</symbol>
<symbol id="buy-btn" viewBox="0 0 6 10" fill="none">
<path d="M1 1L5 5L1 9" stroke="#D41443" stroke-width="2" stroke-linecap="round" stroke-linejoin="round"/>
</symbol>
<symbol id="home" viewBox="0 0 35 32">
<path fill="#d31342" style="fill: var(--color4, #d31342)" d="M34.253 15.613c0.257-0.279 0.414-0.654 0.414-1.064 0-0.475-0.21-0.901-0.543-1.19l-0.002-0.002-14.773-12.925c-0.318-0.269-0.732-0.432-1.184-0.432-0.467 0-0.893 0.174-1.217 0.46l0.002-0.002-14.821 13.589c-0.316 0.288-0.513 0.701-0.513 1.16 0 0.424 0.168 0.809 0.442 1.091l-0-0 0.373 0.387c0.613 0.64 1.611 0.72 2.224 0.171l1.107-0.992v14.523c0 0.893 0.72 1.613 1.613 1.613h5.773c0.891 0 1.613-0.72 1.613-1.613v-10.16h7.373v10.16c-0.013 0.891 0.624 1.613 1.515 1.613h6.123c0.891 0 1.611-0.72 1.611-1.613v-14.32l0.685 0.603c0.376 0.331 1.168 0.064 1.765-0.595l0.421-0.461z"></path>
</symbol>
<symbol id="link-arrow" viewBox="0 0 32 32">
<path d="M20.916 16.471c0.12-0.121 0.195-0.287 0.195-0.471s-0.075-0.351-0.195-0.471v0l-4.243-4.243c-0.119-0.111-0.279-0.179-0.454-0.179-0.368 0-0.667 0.298-0.667 0.667 0 0.176 0.068 0.336 0.179 0.455l-0-0 3.771 3.772-3.771 3.772c-0.111 0.119-0.179 0.279-0.179 0.454 0 0.368 0.298 0.667 0.667 0.667 0.176 0 0.336-0.068 0.455-0.179l-0 0 4.243-4.243zM11.556 16.667h8.889v-1.333h-8.889v1.333z"></path>
</symbol>
<symbol id="big-circle" viewBox="0 0 32 32">
<path fill="#d9d9d9" style="fill: var(--color6, #d9d9d9)" d="M32 16c0 8.837-7.163 16-16 16s-16-7.163-16-16c0-8.837 7.163-16 16-16s16 7.163 16 16z"></path>
</symbol>
<symbol id="git-hub" viewBox="0 0 32 32">
<path fill="#fff" style="fill: var(--color1, #fff)" d="M16 0c-8.789 0-16 7.211-16 16 0 7.499 5.262 14.312 12.25 16v-5.293c-0.276 0.070-0.593 0.109-0.919 0.109-0.398 0-0.781-0.059-1.143-0.169l0.028 0.007c-0.946-0.278-1.714-0.909-2.285-1.869-0.363-0.613-1.008-1.28-1.68-1.23l-0.165-1.867c1.454-0.125 2.71 0.886 3.456 2.139 0.333 0.558 0.715 0.885 1.205 1.029 0.472 0.141 0.981 0.074 1.573-0.136 0.149-1.186 0.693-1.629 1.104-2.256-4.168-0.621-5.829-2.832-6.488-4.576-0.874-2.318-0.405-5.213 1.139-7.043 0.030-0.035 0.085-0.128 0.064-0.192-0.709-2.141 0.154-3.91 0.186-4.098 0.818 0.24 0.95-0.243 3.552 1.336l0.448 0.27c0.189 0.112 0.128 0.048 0.317 0.032 1.003-0.282 2.157-0.452 3.349-0.469l0.010-0c1.136 0.014 2.272 0.176 3.403 0.483l0.146 0.016c-0.013-0.003 0.040-0.010 0.128-0.062 3.248-1.968 3.131-1.325 4.003-1.608 0.032 0.189 0.882 1.987 0.182 4.099-0.096 0.291 2.816 2.957 1.202 7.235-0.659 1.744-2.32 3.957-6.486 4.578 0.534 0.816 1.176 1.248 1.173 2.928v6.606c6.986-1.688 12.25-8.501 12.25-16 0-8.789-7.211-16-16-16z"></path>
</symbol>
<symbol id="telegram" viewBox="0 0 44 32">
<path fill="#fff" style="fill: var(--color1, #fff)" d="M17.342 21.048l-0.674 8.86c0.966 0 1.384-0.388 1.886-0.852l4.526-4.040 9.38 6.414c1.72 0.894 2.934 0.422 3.4-1.478l6.156-26.932c0.548-2.374-0.92-3.302-2.594-2.72l-36.194 12.934c-2.47 0.896-2.434 2.18-0.42 2.766l9.252 2.684 21.494-12.552c1.012-0.626 1.932-0.28 1.176 0.346l-17.39 14.57z"></path>
</symbol>
<symbol id="facebook" viewBox="0 0 16 32">
<path fill="#fff" style="fill: var(--color1, #fff)" d="M14.143 15.971h-4.033v14.865h-6.112v-14.865h-2.906v-5.222h2.906v-3.382c0-2.417 1.142-6.204 6.167-6.204l4.527 0.019v5.072h-3.284c-0.538 0-1.297 0.272-1.297 1.425v3.073h4.567l-0.534 5.219z"></path>
</symbol>
<symbol id="button-arrow" viewBox="0 0 19 32">
<path fill="none" stroke="#d41443" style="stroke: currentColor" stroke-linejoin="round" stroke-linecap="round" stroke-miterlimit="4" stroke-width="6.4" d="M3.2 3.2l12.8 12.8-12.8 12.8"></path>
</symbol>
<symbol id="midle-circle" viewBox="0 0 139 32">
<path fill="#fff" style="fill: var(--color1, #fff)" d="M85.333 16c0 8.837-7.163 16-16 16s-16-7.163-16-16c0-8.837 7.163-16 16-16s16 7.163 16 16z"></path>
<path fill="#fff" style="fill: var(--color1, #fff)" d="M32 16c0 8.837-7.163 16-16 16s-16-7.163-16-16c0-8.837 7.163-16 16-16s16 7.163 16 16z"></path>
<path fill="#fff" style="fill: var(--color1, #fff)" d="M138.667 16c0 8.837-7.163 16-16 16s-16-7.163-16-16c0-8.837 7.163-16 16-16s16 7.163 16 16z"></path>
</symbol>
<symbol id="mini-circle" viewBox="0 0 256 32">
<path fill="#c7133e" style="fill: var(--color7, #c7133e)" d="M144 16c0 8.837-7.163 16-16 16s-16-7.163-16-16c0-8.837 7.163-16 16-16s16 7.163 16 16z"></path>
<path fill="#c7133e" style="fill: var(--color7, #c7133e)" d="M32 16c0 8.837-7.163 16-16 16s-16-7.163-16-16c0-8.837 7.163-16 16-16s16 7.163 16 16z"></path>
<path fill="#c7133e" style="fill: var(--color7, #c7133e)" d="M256 16c0 8.837-7.163 16-16 16s-16-7.163-16-16c0-8.837 7.163-16 16-16s16 7.163 16 16z"></path>
</symbol>
</defs>
</svg>
