<svg aria-hidden="true" version="1.1" xmlns="http://www.w3.org/2000/svg" xmlns:xlink="http://www.w3.org/1999/xlink">
<defs>
<symbol id="logo" viewBox="0 0 32 32">
<path fill="#d41442" style="fill: var(--color2, #d41442)" d="M32 16c0 6.857-4.317 12.727-10.413 14.984-0.593 0.226-1.242 0.423-1.862 0.564-1.185 0.282-2.427 0.423-3.725 0.423-1.016 0-2.032-0.085-2.991-0.282-0.649-0.113-1.27-0.282-1.862-0.48-6.462-2.032-11.146-8.071-11.146-15.21 0-8.832 7.168-16 16-16s16 7.168 16 16z"></path>
<path fill="#fff" style="fill: var(--color1, #fff)" d="M25.679 15.549c0.056-0.818-0.056-2.088-0.198-2.822-0.169-1.072-0.508-2.145-1.129-3.132-0.339-0.564-0.762-1.101-1.242-1.58-0.339-0.339-0.705-0.649-1.129-0.931-0.564-0.395-1.185-0.762-1.862-1.016-0.564-0.254-1.185-0.423-1.862-0.536-0.564-0.113-1.157-0.169-1.75-0.169h-0.339c-2.737 0-5.023 1.101-6.603 2.653-0.48 0.48-0.903 1.016-1.242 1.58-0.621 0.988-0.959 2.060-1.129 3.132-0.113 0.734-0.226 2.004-0.198 2.822-1.101 0.395-1.862 1.439-1.862 2.681 0 1.326 0.903 2.455 2.116 2.765v3.527c0 2.258 1.665 4.148 3.838 4.43v2.286c0.621 0.198 1.242 0.367 1.862 0.48v-2.709h6.716v2.568c0.649-0.141 1.27-0.339 1.862-0.564v-2.032c2.173-0.31 3.838-2.173 3.838-4.43v-3.584c1.213-0.31 2.116-1.439 2.116-2.765 0.085-1.213-0.705-2.258-1.806-2.653zM16.198 7.224h0.339c0.593 0 1.129 0.056 1.665 0.169 0.705 0.169 1.355 0.395 1.947 0.734 0.705 0.395 1.355 0.875 1.862 1.439-0.508 0.508-1.157 0.959-1.862 1.298-0.593 0.282-1.242 0.508-1.947 0.649-0.536 0.113-1.101 0.169-1.665 0.169h-0.339c-2.201 0-4.176-0.818-5.474-2.088 1.27-1.383 3.189-2.37 5.474-2.37zM9.086 12.952c0.113-0.621 0.254-1.242 0.564-1.834 1.637 1.496 3.951 2.427 6.547 2.427h0.339c0.564 0 1.129-0.056 1.665-0.141 0.677-0.113 1.326-0.282 1.947-0.508 0.677-0.254 1.298-0.564 1.862-0.959 0.395-0.254 0.734-0.536 1.072-0.847 0.31 0.593 0.451 1.213 0.564 1.834 0.113 0.593 0.198 1.834 0.169 2.427h-14.899c-0.028-0.564 0.056-1.806 0.169-2.399zM23.563 24.494c0 1.439-1.185 2.624-2.624 2.624h-9.171c-1.439 0-2.624-1.185-2.624-2.624v-3.414h7.139v1.467c0 1.58 1.27 2.85 2.85 2.85 1.608 0 2.878-1.27 2.878-2.85v-1.467h1.552v3.414zM18.173 22.547v-1.467h1.947v1.467c0 0.536-0.423 0.988-0.988 0.988-0.508 0-0.959-0.451-0.959-0.988zM24.72 19.189h-16.705c-0.536 0-0.988-0.451-0.988-0.988 0-0.339 0.169-0.649 0.452-0.818 0.169-0.113 0.339-0.169 0.536-0.169h16.705c0.198 0 0.395 0.056 0.536 0.169 0.282 0.169 0.451 0.48 0.451 0.818-0.028 0.564-0.451 0.988-0.988 0.988z"></path>
</symbol>
<symbol viewBox="0 0 46 32">
<path fill="none" stroke="#d41443" style="stroke: var(--color3, #d41443)" stroke-linejoin="miter" stroke-linecap="butt" stroke-miterlimit="4" stroke-width="2.2857" d="M0 2.286h45.714M0 16h45.714M0 29.714h45.714"></path>
</symbol>
<symbol id="mob-menu" viewBox="0 0 20 14" fill="none" xmlns="http://www.w3.org/2000/svg">
<path d="M0 1H20" stroke="#D41443"/>
<path d="M0 7H20" stroke="#D41443"/>
<path d="M0 13H20" stroke="#D41443"/>
</symbol>
<symbol id="close-menu" viewBox="0 0 16 16">
<path d="M1.25928 1L14.7408 15"/>
<path d="M1 14.7407L15 1.25924"/>
</symbol>
<symbol id="buy-btn" viewBox="0 0 6 10" fill="none">
<path d="M1 1L5 5L1 9" stroke="#D41443" stroke-width="2" stroke-linecap="round" stroke-linejoin="round"/>
</symbol>
<symbol id="circle-up"  viewBox="0 0 32 32">
<path d="M22.086 20.914l2.829-2.829-8.914-8.914-8.914 8.914 2.828 2.828 6.086-6.086z"></path>
</symbol>
<symbol id="home" viewBox="0 0 35 32">
<path fill="#d31342" style="fill: var(--color4, #d31342)" d="M34.253 15.613c0.257-0.279 0.414-0.654 0.414-1.064 0-0.475-0.21-0.901-0.543-1.19l-0.002-0.002-14.773-12.925c-0.318-0.269-0.732-0.432-1.184-0.432-0.467 0-0.893 0.174-1.217 0.46l0.002-0.002-14.821 13.589c-0.316 0.288-0.513 0.701-0.513 1.16 0 0.424 0.168 0.809 0.442 1.091l-0-0 0.373 0.387c0.613 0.64 1.611 0.72 2.224 0.171l1.107-0.992v14.523c0 0.893 0.72 1.613 1.613 1.613h5.773c0.891 0 1.613-0.72 1.613-1.613v-10.16h7.373v10.16c-0.013 0.891 0.624 1.613 1.515 1.613h6.123c0.891 0 1.611-0.72 1.611-1.613v-14.32l0.685 0.603c0.376 0.331 1.168 0.064 1.765-0.595l0.421-0.461z"></path>
</symbol>
<symbol id="link-arrow" viewBox="0 0 32 32">
<path d="M20.916 16.471c0.12-0.121 0.195-0.287 0.195-0.471s-0.075-0.351-0.195-0.471v0l-4.243-4.243c-0.119-0.111-0.279-0.179-0.454-0.179-0.368 0-0.667 0.298-0.667 0.667 0 0.176 0.068 0.336 0.179 0.455l-0-0 3.771 3.772-3.771 3.772c-0.111 0.119-0.179 0.279-0.179 0.454 0 0.368 0.298 0.667 0.667 0.667 0.176 0 0.336-0.068 0.455-0.179l-0 0 4.243-4.243zM11.556 16.667h8.889v-1.333h-8.889v1.333z"></path>
</symbol>
<symbol id="big-circle" viewBox="0 0 32 32">
<path fill="#d9d9d9" style="fill: var(--color6, #d9d9d9)" d="M32 16c0 8.837-7.163 16-16 16s-16-7.163-16-16c0-8.837 7.163-16 16-16s16 7.163 16 16z"></path>
</symbol>
<symbol id="git-hub" viewBox="0 0 32 32">
<path fill="#fff" style="fill: var(--color1, #fff)" d="M16 0c-8.789 0-16 7.211-16 16 0 7.499 5.262 14.312 12.25 16v-5.293c-0.276 0.070-0.593 0.109-0.919 0.109-0.398 0-0.781-0.059-1.143-0.169l0.028 0.007c-0.946-0.278-1.714-0.909-2.285-1.869-0.363-0.613-1.008-1.28-1.68-1.23l-0.165-1.867c1.454-0.125 2.71 0.886 3.456 2.139 0.333 0.558 0.715 0.885 1.205 1.029 0.472 0.141 0.981 0.074 1.573-0.136 0.149-1.186 0.693-1.629 1.104-2.256-4.168-0.621-5.829-2.832-6.488-4.576-0.874-2.318-0.405-5.213 1.139-7.043 0.030-0.035 0.085-0.128 0.064-0.192-0.709-2.141 0.154-3.91 0.186-4.098 0.818 0.24 0.95-0.243 3.552 1.336l0.448 0.27c0.189 0.112 0.128 0.048 0.317 0.032 1.003-0.282 2.157-0.452 3.349-0.469l0.010-0c1.136 0.014 2.272 0.176 3.403 0.483l0.146 0.016c-0.013-0.003 0.040-0.010 0.128-0.062 3.248-1.968 3.131-1.325 4.003-1.608 0.032 0.189 0.882 1.987 0.182 4.099-0.096 0.291 2.816 2.957 1.202 7.235-0.659 1.744-2.32 3.957-6.486 4.578 0.534 0.816 1.176 1.248 1.173 2.928v6.606c6.986-1.688 12.25-8.501 12.25-16 0-8.789-7.211-16-16-16z"></path>
</symbol>
<symbol id="telegram" viewBox="0 0 44 32">
<path fill="#fff" style="fill: var(--color1, #fff)" d="M17.342 21.048l-0.674 8.86c0.966 0 1.384-0.388 1.886-0.852l4.526-4.040 9.38 6.414c1.72 0.894 2.934 0.422 3.4-1.478l6.156-26.932c0.548-2.374-0.92-3.302-2.594-2.72l-36.194 12.934c-2.47 0.896-2.434 2.18-0.42 2.766l9.252 2.684 21.494-12.552c1.012-0.626 1.932-0.28 1.176 0.346l-17.39 14.57z"></path>
</symbol>
<symbol id="facebook" viewBox="0 0 16 32">
<path fill="#fff" style="fill: var(--color1, #fff)" d="M14.143 15.971h-4.033v14.865h-6.112v-14.865h-2.906v-5.222h2.906v-3.382c0-2.417 1.142-6.204 6.167-6.204l4.527 0.019v5.072h-3.284c-0.538 0-1.297 0.272-1.297 1.425v3.073h4.567l-0.534 5.219z"></path>
</symbol>
<symbol id="button-arrow" viewBox="0 0 19 32">
<path fill="none" stroke="#d41443" style="stroke: currentColor" stroke-linejoin="round" stroke-linecap="round" stroke-miterlimit="4" stroke-width="6.4" d="M3.2 3.2l12.8 12.8-12.8 12.8"></path>
</symbol>
<symbol id="midle-circle" viewBox="0 0 139 32">
<path fill="#fff" style="fill: var(--color1, #fff)" d="M85.333 16c0 8.837-7.163 16-16 16s-16-7.163-16-16c0-8.837 7.163-16 16-16s16 7.163 16 16z"></path>
<path fill="#fff" style="fill: var(--color1, #fff)" d="M32 16c0 8.837-7.163 16-16 16s-16-7.163-16-16c0-8.837 7.163-16 16-16s16 7.163 16 16z"></path>
<path fill="#fff" style="fill: var(--color1, #fff)" d="M138.667 16c0 8.837-7.163 16-16 16s-16-7.163-16-16c0-8.837 7.163-16 16-16s16 7.163 16 16z"></path>
</symbol>
<symbol id="mini-circle" viewBox="0 0 256 32">
<path fill="#c7133e" style="fill: var(--color7, #c7133e)" d="M144 16c0 8.837-7.163 16-16 16s-16-7.163-16-16c0-8.837 7.163-16 16-16s16 7.163 16 16z"></path>
<path fill="#c7133e" style="fill: var(--color7, #c7133e)" d="M32 16c0 8.837-7.163 16-16 16s-16-7.163-16-16c0-8.837 7.163-16 16-16s16 7.163 16 16z"></path>
<path fill="#c7133e" style="fill: var(--color7, #c7133e)" d="M256 16c0 8.837-7.163 16-16 16s-16-7.163-16-16c0-8.837 7.163-16 16-16s16 7.163 16 16z"></path>
</symbol>
<symbol id="icon-phone" viewBox="0 0 32 32">
<path fill="#d41443" style="fill: var(--color1, #d41443)" d="M17.532 0.261h-13.817c-1.89 0-3.389 1.502-3.389 3.396v24.686c0 1.894 1.499 3.396 3.389 3.396h13.817c1.89 0 3.389-1.502 3.389-3.396v-24.686c0-1.829-1.564-3.396-3.389-3.396zM3.716 2.155h13.817c0.847 0 1.564 0.718 1.564 1.567v18.351h-16.945v-18.416c0-0.849 0.717-1.502 1.564-1.502zM17.532 29.91h-13.817c-0.847 0-1.564-0.718-1.564-1.567v-4.506h16.88v4.506c0 0.849-0.652 1.567-1.499 1.567z"></path>
<path fill="#d41443" style="fill: var(--color1, #d41443)" d="M24.245 13.257c-0.391 0.392-0.391 0.914 0 1.306s0.587 0.914 0.587 1.502c0 0.588-0.196 1.11-0.587 1.502s-0.391 0.914 0 1.306c0.196 0.196 0.391 0.261 0.652 0.261s0.456-0.065 0.652-0.261c0.717-0.718 1.173-1.763 1.173-2.808s-0.391-2.024-1.173-2.808c-0.326-0.392-0.912-0.392-1.304 0z"></path>
<path fill="#d41443" style="fill: var(--color1, #d41443)" d="M28.808 8.947c-0.391-0.392-0.912-0.392-1.304 0s-0.391 0.914 0 1.306c3.128 3.135 3.128 8.294 0 11.494-0.391 0.392-0.391 0.914 0 1.306 0.196 0.196 0.391 0.261 0.652 0.261s0.456-0.065 0.652-0.261c3.91-3.853 3.91-10.188 0-14.106z"></path>
<path fill="#d41443" style="fill: var(--color1, #d41443)" d="M10.624 24.49c-1.303 0-2.411 1.11-2.411 2.416s1.108 2.416 2.411 2.416 2.411-1.11 2.411-2.416c0-1.372-1.108-2.416-2.411-2.416zM10.624 27.429c-0.326 0-0.587-0.261-0.587-0.588s0.261-0.588 0.587-0.588 0.587 0.261 0.587 0.588c-0.065 0.327-0.261 0.588-0.587 0.588z"></path>
</symbol>
<symbol id="icon-person" viewBox="0 0 29 32">
<path fill="#d41443" style="fill: var(--color1, #d41443)" d="M24.587 20.352c-1.902-2.014-4.211-3.38-6.724-4.027 2.649-1.366 4.483-4.243 4.483-7.622 0-4.674-3.6-8.485-8.015-8.485s-8.015 3.811-8.015 8.485c0 3.308 1.834 6.256 4.483 7.622-2.513 0.647-4.823 2.013-6.725 4.027-2.717 2.876-4.211 6.688-4.211 10.786 0 0.36 0.272 0.647 0.611 0.647h27.577c0.34 0 0.611-0.288 0.611-0.647 0.136-4.099-1.359-7.91-4.076-10.786zM8.081 8.702c0-3.667 2.853-6.688 6.317-6.688s6.317 3.020 6.317 6.688-2.853 6.688-6.317 6.688c-3.464 0-6.317-2.948-6.317-6.688zM2.24 29.988c0.272-6.831 5.638-12.297 12.159-12.297s11.819 5.465 12.158 12.297h-24.317z"></path>
</symbol>
<symbol id="icon-mail" viewBox="0 0 32 32">
<path fill="#d41443" style="fill: var(--color1, #d41443)" d="M31.635 12.472l-5.049-4.137v-3.894c0-0.487-0.426-0.913-0.912-0.913h-4.989l-3.954-3.285c-0.365-0.304-0.852-0.304-1.156 0l-4.015 3.285h-5.11c-0.487 0-0.913 0.426-0.913 0.913v3.954l-5.049 4.076c-0.243 0.182-0.365 0.426-0.365 0.73v17.825c0 0.487 0.426 0.913 0.913 0.913h29.992c0.487 0 0.912-0.426 0.912-0.913v-17.825c0-0.304-0.122-0.548-0.304-0.73zM9.065 21.658l-7.118 7.118v-13.506l7.118 6.388zM10.464 22.935l4.928 4.38c0.182 0.182 0.426 0.243 0.608 0.243 0.243 0 0.426-0.061 0.608-0.243l4.928-4.38 7.24 7.179h-25.49l7.179-7.179zM22.936 21.658l7.179-6.388v13.506l-7.179-7.118zM29.567 13.202l-2.981 2.677v-5.171l2.981 2.494zM16.122 2.19l1.643 1.338h-3.285l1.643-1.338zM24.7 5.414v12.167l-8.7 7.726-8.7-7.726v-12.167h17.399zM5.415 15.878l-2.981-2.677 2.981-2.433v5.11z"></path>
<path fill="#d41443" style="fill: var(--color1, #d41443)" d="M10.159 9.065h11.62c0.487 0 0.912-0.426 0.912-0.913s-0.426-0.913-0.912-0.913h-11.62c-0.487 0-0.913 0.426-0.913 0.913 0 0.548 0.426 0.913 0.913 0.913z"></path>
<path fill="#d41443" style="fill: var(--color1, #d41443)" d="M10.159 12.167h4.015c0.487 0 0.913-0.426 0.913-0.913s-0.426-0.913-0.913-0.913h-4.015c-0.487 0-0.913 0.426-0.913 0.913s0.426 0.913 0.913 0.913z"></path>
<path fill="#d41443" style="fill: var(--color1, #d41443)" d="M21.84 10.281h-4.015c-0.487 0-0.913 0.426-0.913 0.913s0.426 0.913 0.913 0.913h4.015c0.487 0 0.912-0.426 0.912-0.913s-0.426-0.913-0.912-0.913z"></path>
<path fill="#d41443" style="fill: var(--color1, #d41443)" d="M10.159 15.27h4.015c0.487 0 0.913-0.426 0.913-0.913s-0.426-0.913-0.913-0.913h-4.015c-0.487 0-0.913 0.426-0.913 0.913s0.426 0.913 0.913 0.913z"></path>
<path fill="#d41443" style="fill: var(--color1, #d41443)" d="M21.84 13.445h-4.015c-0.487 0-0.913 0.426-0.913 0.913s0.426 0.913 0.913 0.913h4.015c0.487 0 0.912-0.426 0.912-0.913s-0.426-0.913-0.912-0.913z"></path>
<path fill="#d41443" style="fill: var(--color1, #d41443)" d="M10.159 18.433h11.62c0.487 0 0.912-0.426 0.912-0.912s-0.426-0.913-0.912-0.913h-11.62c-0.487 0-0.913 0.426-0.913 0.913s0.426 0.912 0.913 0.912z"></path>
</symbol>
<symbol id="icon-check" viewBox="0 0 32 32">
<path fill="#d41443" style="fill: var(--color1, #d41443)" d="M7.2 5.6h12.8c0.884 0 1.6 0.716 1.6 1.6v12.8c0 0.884-0.716 1.6-1.6 1.6h-12.8c-0.884 0-1.6-0.716-1.6-1.6v-12.8c0-0.884 0.716-1.6 1.6-1.6z"></path>
<path fill="#fff" style="fill: var(--color2, #fff)" d="M12.096 16.485l-2.608-2.653-1.001 1.011 3.608 3.671 7.616-7.75-0.994-1.011-6.622 6.732z"></path>
</symbol>
<symbol  id="cheaked" width="13" height="10" viewBox="0 0 13 10" fill="none" xmlns="http://www.w3.org/2000/svg">
<path d="M1.95703 4.75166L1.88825 4.68604L1.81923 4.75141L0.93123 5.59258L0.854858 5.66492L0.930974 5.73753L4.42671 9.07236L4.49574 9.1382L4.56476 9.07236L12.069 1.91352L12.1449 1.84116L12.069 1.76881L11.1873 0.927644L11.1183 0.861826L11.0493 0.927611L4.49577 7.17353L1.95703 4.75166Z" fill="white" stroke="white" stroke-width="0.2"/>
</symbol>
<symbol id="icon-ice" viewBox="0 0 21 32">
<path fill="#d41443" style="fill: var(--color1, #d41443)" d="M18.64 22.198c-0.232 1.915-1.195 2.936-4.003 2.59-2.808-0.347-8.923-1.080-10.904-1.326-1.981-0.245-2.622-1.888-2.395-3.728 0.715-5.779 1.386-11.397 1.389-11.437 0.838-6.91 6.594-9.301 11.264-7.925-0.614 2.059 0.328 4.598 3.29 4.963 0.712 0.104 1.44-0.006 2.091-0.318 0.516 1.179 0.817 2.553 0.817 3.997 0 0.502-0.036 0.995-0.106 1.477l0.007-0.055c-0.022 0.040-0.738 5.914-1.448 11.762zM15.213 11.936c0 0.104-0.246 1.962-0.288 2.275-0.357 2.998-5.371 2.36-5.013-0.578l0.576-4.642c0.243-2.016-2.864-2.435-3.134-0.203-0.021 0.192-0.114 0.933-0.157 1.296-0.205 1.664-1.434 2.107-2.614 1.904l-0.888 8.891 12.36 1.51 1.275-10.416c-0.064-1.667-1.92-1.632-2.117-0.038zM6.832 25.243l5.373 1.059s-0.026 1.603-0.126 3.472c-0.186 3.542-6.504 2.546-5.904-0.81 0.338-1.854 0.656-3.722 0.656-3.722z"></path>
</symbol>
<symbol id="icon-kg" viewBox="0 0 34 32">
<path fill="#d41443" style="fill: var(--color1, #d41443)" d="M22.307 25.324l4.227-13.669c-2.643-0.286-4.623-2.419-7.944-3.426l0.446 4.172-1.236 1.381 0.192 10.255 1.216 1.108 0.571 3.532c1.255 0.859 2.796 1.423 4.856 2.021l0.051 1.302h-15.269l0.13-1.263c2.055-0.51 3.576-1.032 4.77-1.863l0.185-3.653 1.255-1.1-0.039-10.27-1.209-1.629 0.492-4.519c-3.325 0-5.388 1.361-7.99 1.16l4.376 13.504c-3.86 2.769-7.508 2.772-11.387 0l4.687-14.068c-1.080-0.487-2.010-1.056-2.858-1.725l0.029 0.022 0.876-1.218c5.741 3.547 5.903-1.437 14.242-0.35 8.34 1.086 8.224 6.523 13.494 4.020l0.66 1.314c-0.653 0.408-1.347 0.738-2.067 0.985l4.623 13.957c-3.869 2.791-7.517 2.787-11.377 0.017zM5.785 9.085l-3.757 11.567 7.389 0.040-3.633-11.608zM27.921 12.071l-3.633 11.584 7.389-0.042-3.756-11.542zM16.765 3.719c-2.454 0-2.344-3.719-0.040-3.719 2.306 0 2.282 3.719 0.040 3.719z"></path>
</symbol>
<symbol id="icon-pay" viewBox="0 0 44 32">
<path fill="#d41443" style="fill: var(--color1, #d41443)" d="M33.8 23.322c-0.010-4.508-0.010-9.312 0.036-10.458 0.002-0.052 0.003-0.112 0.003-0.173 0-0.337-0.037-0.665-0.107-0.981l0.006 0.030 7.67-2.248c1.040 3.048 2.11 6.158 2.416 7.17 0.596 1.96-0.384 3.656-2.034 4.26-0.63 0.232-3.972 1.224-7.988 2.4zM10.536 8.304c0.111-0.051 0.254-0.108 0.4-0.157l0.032-0.009c2.804-0.93 22.046-7.45 24.268-7.984 2.22-0.532 3.31 0.3 3.98 2.72 0.076 0.266 0.204 0.678 0.37 1.192l-13.32 3.956c-6.445 0.080-11.953 0.182-17.454 0.315l1.722-0.033zM28.752 11.042c1.75 0.144 2.64 1.464 2.56 3.51-0.082 2.044 0 12.324-0.032 14.38-0.040 2.506-1.512 2.972-3.796 3.048-2.284 0.074-21.010-0.080-23.962 0.010-2.954 0.090-3.402-1.474-3.354-3.072 0.046-1.596-0.222-12.22-0.158-14.776s1.524-3.134 3.838-3.070c2.314 0.064 23.152-0.176 24.9-0.030zM17.496 20.376c-5.378 0-5.512 8.4-0.374 8.4 6.096 0 5.648-8.4 0.374-8.4zM22.376 20.79c1.652 2.248 1.706 5.546-0.1 7.66 0.462 0.208 0.998 0.328 1.608 0.328 6.094 0 5.646-8.402 0.372-8.402-0.722 0-1.348 0.152-1.88 0.414z"></path>
</symbol>
<symbol id="icon-home" viewBox="0 0 32 32">
<path fill="none" stroke="#d41443" style="stroke: var(--color1, #d41443)" stroke-linejoin="miter" stroke-linecap="butt" stroke-miterlimit="4" stroke-width="3.2" d="M26.443 10.678l1.088 0.893-11.571-8.901-12.939 10.179 12.949-10.773 7.794 6.403 0.176-3.147 0.128-2.245 1.886 0.075-0.096 6.256-0.013 0.771 0.598 0.49zM27.394 29.686l1.507-0.032-0.030 0.746h-25.245v-0.205l2.91-0.064-0.026-1.59-0.062-3.787 10.918-0.262v-5.811l0.006 0.256 0.23 9.36 0.038 1.595 7.995-0.173 0.038-1.526 0.234-9.198 0.042-1.622-8.618-0.090v0.029l-11.008-0.088-0.005-0.384 9.781-7.618 9.936 7.466-0.277 11.362-0.042 1.677 1.675-0.037z"></path>
</symbol>
<symbol id="icon-basket" viewBox="0 0 32 32">
<path fill="#d41443" style="fill: var(--color1, #d41443)" d="M10.55 24.501c3.592 1.227 3.269 7.365-0.995 7.365-4.939 0-5.216-5.851-1.914-7.269 0.363-0.155 0.768-0.258 1.216-0.293 0.113-0.011 0.244-0.017 0.376-0.017 0.471 0 0.924 0.079 1.346 0.224l-0.029-0.009zM29.077 21.494l-20.29 0.664-5.458-17.771c0 0-1.243-0.118-1.939-0.134-1.419-0.035-2.104-3.758-0.32-3.859 0.541-0.030-1.070-0.394 5.053-0.394l1.76 7.162 24.117 1.293-2.922 13.038zM10.544 19.701l16.597-0.544 1.896-8.458-21.613-1.16 3.12 10.16zM2.402 1.883v-0.003zM9.554 29.464c0.478 0 0.669-0.16 0.779-0.296 0.16-0.195 0.301-0.552 0.286-1.016-0.002-0.411-0.148-0.787-0.39-1.081l0.002 0.003c-0.17-0.19-0.45-0.384-1.021-0.384-0.541 0-0.824 0.189-0.998 0.384-0.224 0.268-0.36 0.616-0.36 0.995 0 0.007 0 0.014 0 0.020v-0.001c-0.001 0.016-0.001 0.035-0.001 0.054 0 0.34 0.127 0.65 0.335 0.887l-0.001-0.001c0.166 0.176 0.536 0.438 1.37 0.438zM26.962 27.208c-0.168-0.189-0.448-0.384-1.021-0.384-0.539 0-0.824 0.189-0.997 0.384-0.225 0.268-0.362 0.616-0.362 0.997 0 0.007 0 0.014 0 0.020v-0.001c-0.001 0.016-0.001 0.034-0.001 0.052 0 0.341 0.127 0.652 0.337 0.889l-0.001-0.001c0.166 0.174 0.534 0.437 1.368 0.437 0.478 0 0.667-0.16 0.779-0.298 0.158-0.194 0.299-0.552 0.285-1.016-0.001-0.411-0.147-0.787-0.388-1.081l0.002 0.003zM25.941 24.424c4.957 0 5.080 7.576 0.344 7.576-5.619 0-5.205-7.574-0.344-7.574z"></path>
</symbol>
<symbol id="icon-chk" viewBox="0 0 32 32">
<path d="M29.707 6.812l-3.206 25.188-3.248-0.236 2.997-25.437c-2.496-1.734-1.622-6.326 2.214-6.326 4.278 0 4.651 5.749 1.243 6.812zM14.14 20.491l1.431-10.268 8.553-3.56-1.904 15.814-8.080-1.987zM0 18.719l12.904-5.287-0.964 9.063-11.94-3.776z"></path>
</symbol>
<symbol id="icon-radio" viewBox="0 0 37 32">
<path d="M15.291 32c-7.433-6.738-16.443-15.643-15.17-23.938 1.49-9.73 12.919-10.805 19.227-2.382 8.942-7.463 18.197-1.989 17.141 7.954-0.873 8.24-12.153 14.062-21.198 18.366z"></path>
</symbol>
</defs>
</svg>
